<?xml version="1.0" encoding="UTF-8"?>
<svg xmlns="http://www.w3.org/2000/svg" width="32" height="32" viewBox="0 0 32 32" fill="none">
  <rect width="32" height="32" fill="black"></rect>
  <mask id="mask0_513_5460" style="mask-type:luminance" maskUnits="userSpaceOnUse" x="5" y="1" width="22" height="30">
    <path d="M26.8475 1H5.35815V31H26.8475V1Z" fill="white"></path>
  </mask>
  <g mask="url(#mask0_513_5460)">
    <path d="M25.53 3.47068C25.53 3.47068 24.1257 6.87727 22.5715 7.64174C21.4304 8.20063 20.0457 7.82753 19.0227 7.73463C18.9152 7.71942 18.8063 7.70419 18.6973 7.69353C18.2615 7.6448 17.8105 7.61738 17.3459 7.61738C15.0305 7.61738 13.0057 8.25851 11.8828 9.21942C9.77623 8.38642 8.4248 7.092 8.4248 5.63921C8.4248 3.91993 10.3195 2.42297 13.1161 1.64784C13.8758 1.43769 14.7006 1.27931 15.5723 1.18642C15.6298 1.17881 15.6903 1.17271 15.7509 1.16815C16.3411 1.10571 16.9509 1.07373 17.5775 1.07373C18.1056 1.07373 18.5914 1.0981 19.0227 1.13464C20.0593 1.22297 20.7751 1.37677 20.9598 1.40723C22.9211 1.80012 24.5388 2.53566 25.53 3.47068Z" fill="url(#paint0_linear_513_5460)"></path>
    <path d="M20.8236 28.0343C20.4559 29.003 19.79 29.7947 18.9259 30.3796C18.9183 30.3811 18.9093 30.3826 18.9017 30.3856V30.3979C17.5715 30.6903 16.1383 30.8501 14.6447 30.8501C14.1105 30.8501 13.5853 30.8288 13.0678 30.7892V30.7847C12.3293 30.7269 11.5953 30.6294 10.8795 30.4999C10.8326 30.4907 10.7872 30.483 10.7403 30.4741C10.6919 30.4633 10.6404 30.4526 10.592 30.4435C10.3529 30.3979 10.1183 30.3475 9.88675 30.2913C8.65792 30.0035 7.5199 29.6182 6.57255 29.1567C6.57104 29.1552 6.57104 29.1552 6.57104 29.1552C6.34555 29.0471 6.13066 28.9343 5.92787 28.8171L5.43604 28.5294L5.99597 26.3303L6.0217 26.2299C6.02472 26.2162 6.02926 26.2009 6.03078 26.1888L6.08223 25.9907C6.54077 24.3492 7.93304 23.2969 9.631 23.2969C10.1592 23.2969 10.8462 23.513 10.9627 23.5467C12.4004 23.9928 14.1529 24.2547 16.043 24.2547C17.6592 24.2547 19.1741 24.0643 20.4771 23.7294C21.1823 25.1303 21.3503 26.6486 20.8236 28.0343Z" fill="url(#paint1_linear_513_5460)"></path>
    <path d="M18.9279 30.3799C18.9198 30.3862 18.9118 30.3896 18.9021 30.3976V30.3846C18.9102 30.3831 18.9198 30.3815 18.9279 30.3799Z" fill="black"></path>
    <path d="M26.771 21.535C26.771 25.8888 23.7157 29.3029 18.9275 30.3797C19.7916 29.7948 20.4575 29.0031 20.8252 28.0344C22.0238 24.8746 19.6221 21.0202 15.462 19.4213C15.3091 19.3619 15.1548 19.307 15.0034 19.2568C14.9959 19.2553 14.9898 19.2522 14.9853 19.2507C14.7674 19.17 14.5343 19.0862 14.2876 19.0025C10.3454 17.67 5.82202 15.4558 5.82202 10.1487C5.82202 5.97913 8.65499 2.76136 13.2646 1.62988C12.2234 2.46592 11.5364 3.53496 11.3593 4.7639C10.9946 7.30247 12.9059 9.81211 15.9629 11.2558C15.9644 11.2573 15.9689 11.2588 15.972 11.2619C16.6999 11.6304 17.6624 12.037 18.9048 12.5076C24.4134 14.4659 26.771 17.1674 26.771 21.535Z" fill="#E50914"></path>
  </g>
  <defs>
    <linearGradient id="paint0_linear_513_5460" x1="8.42544" y1="5.14431" x2="25.5308" y2="5.14431" gradientUnits="userSpaceOnUse">
      <stop stop-color="#890915"></stop>
      <stop offset="1" stop-color="#E50914"></stop>
    </linearGradient>
    <linearGradient id="paint1_linear_513_5460" x1="6.40985" y1="24.4037" x2="20.3277" y2="28.5156" gradientUnits="userSpaceOnUse">
      <stop stop-color="#E50914"></stop>
      <stop offset="1" stop-color="#890915"></stop>
    </linearGradient>
  </defs>
</svg>
