<?xml version="1.0" encoding="UTF-8"?>
<svg xmlns="http://www.w3.org/2000/svg" width="179" height="38" viewBox="0 0 179 38" fill="none">
  <g clip-path="url(#clip0_155_2214)">
    <mask id="mask0_155_2214" style="mask-type:luminance" maskUnits="userSpaceOnUse" x="0" y="0" width="28" height="38">
      <path d="M27.9708 0H0.750977V38H27.9708V0Z" fill="white"></path>
    </mask>
    <g mask="url(#mask0_155_2214)">
      <path d="M26.3024 3.12988C26.3024 3.12988 24.5235 7.4449 22.5548 8.41323C21.1095 9.12116 19.3556 8.64856 18.0597 8.53089C17.9236 8.51162 17.7856 8.49233 17.6476 8.47882C17.0955 8.41711 16.5243 8.38237 15.9358 8.38237C13.003 8.38237 10.4382 9.19446 9.01585 10.4116C6.34755 9.35649 4.63574 7.71689 4.63574 5.87669C4.63574 3.69894 7.0357 1.80278 10.5781 0.820955C11.5404 0.554764 12.5851 0.354153 13.6892 0.236489C13.7621 0.226845 13.8387 0.21913 13.9154 0.213343C14.663 0.134257 15.4355 0.09375 16.2291 0.09375C16.8981 0.09375 17.5134 0.124612 18.0597 0.170906C19.3728 0.282784 20.2795 0.477605 20.5134 0.516184C22.9977 1.01385 25.0468 1.94553 26.3024 3.12988Z" fill="url(#paint0_linear_155_2214)"></path>
      <path d="M20.341 34.2439C19.8753 35.471 19.0318 36.4738 17.9373 37.2147C17.9277 37.2166 17.9162 37.2184 17.9066 37.2222V37.2378C16.2216 37.6081 14.4064 37.8105 12.5144 37.8105C11.8377 37.8105 11.1726 37.7836 10.517 37.7335V37.7278C9.58154 37.6545 8.65183 37.5311 7.74517 37.3669C7.68574 37.3554 7.62823 37.3456 7.56881 37.3343C7.50747 37.3206 7.4423 37.3071 7.38094 37.2955C7.07807 37.2378 6.78097 37.174 6.48767 37.1028C4.93115 36.7382 3.48965 36.2501 2.28968 35.6656C2.28777 35.6637 2.28777 35.6637 2.28777 35.6637C2.00215 35.5268 1.72995 35.3839 1.47309 35.2354L0.850098 34.8711L1.55935 32.0855L1.59194 31.9583C1.59577 31.941 1.60152 31.9216 1.60344 31.9063L1.66861 31.6553C2.24943 29.5761 4.01298 28.2432 6.16372 28.2432C6.83271 28.2432 7.70299 28.517 7.8506 28.5596C9.67163 29.1247 11.8914 29.4565 14.2856 29.4565C16.3328 29.4565 18.2516 29.2153 19.9021 28.7911C20.7953 30.5655 21.0081 32.4887 20.341 34.2439Z" fill="url(#paint1_linear_155_2214)"></path>
      <path d="M17.938 37.2148C17.9282 37.2226 17.9185 37.2267 17.9067 37.2363V37.2206C17.9165 37.2187 17.9282 37.2168 17.938 37.2148Z" fill="black"></path>
      <path d="M27.8738 26.0109C27.8738 31.5259 24.0037 35.8503 17.9387 37.2143C19.0332 36.4734 19.8766 35.4706 20.3424 34.2435C21.8606 30.2411 18.8185 25.359 13.549 23.3336C13.3554 23.2583 13.1598 23.1889 12.9682 23.1253C12.9586 23.1233 12.9509 23.1195 12.9452 23.1176C12.6691 23.0153 12.3739 22.9092 12.0615 22.8031C7.06796 21.1153 1.33838 18.3106 1.33838 11.5883C1.33838 6.3069 4.9268 2.23105 10.7657 0.797852C9.44684 1.85684 8.57655 3.21095 8.35227 4.7676C7.89032 7.98313 10.3113 11.162 14.1835 12.9906C14.1854 12.9926 14.1911 12.9945 14.195 12.9983C15.117 13.4652 16.3361 13.9802 17.9099 14.5762C24.8874 17.0568 27.8738 20.4788 27.8738 26.0109Z" fill="#E50914"></path>
    </g>
    <path d="M55.4348 23.4082C55.4348 23.0561 55.3806 22.7401 55.2723 22.4603C55.1731 22.1714 54.9834 21.9096 54.7036 21.6749C54.4236 21.4311 54.031 21.1919 53.5256 20.9572C53.02 20.7225 52.3654 20.4787 51.562 20.226C50.6684 19.9371 49.8197 19.6121 49.0163 19.251C48.2218 18.8899 47.5179 18.4701 46.9039 17.9917C46.2992 17.5042 45.8205 16.94 45.4686 16.299C45.1255 15.6581 44.9541 14.9133 44.9541 14.0647C44.9541 13.2432 45.1344 12.4985 45.4955 11.8305C45.8566 11.1534 46.3622 10.5756 47.0123 10.0972C47.6623 9.60969 48.4296 9.23506 49.3141 8.97326C50.208 8.71146 51.1874 8.58057 52.2528 8.58057C53.7062 8.58057 54.9745 8.84236 56.0576 9.36595C57.141 9.88955 57.9805 10.6072 58.5764 11.519C59.1812 12.4308 59.4836 13.4734 59.4836 14.647H55.4483C55.4483 14.0692 55.3265 13.5637 55.0828 13.1304C54.8481 12.688 54.487 12.3405 53.9994 12.0877C53.5211 11.835 52.9163 11.7086 52.1849 11.7086C51.4809 11.7086 50.8939 11.8169 50.4245 12.0336C49.9553 12.2412 49.603 12.5256 49.3683 12.8867C49.1335 13.2387 49.0163 13.6359 49.0163 14.0783C49.0163 14.4123 49.0974 14.7147 49.2599 14.9855C49.4316 15.2564 49.6844 15.5091 50.0183 15.7438C50.3525 15.9786 50.7632 16.1997 51.2505 16.4074C51.738 16.615 52.3024 16.8181 52.9432 17.0167C54.0175 17.3417 54.961 17.7073 55.7733 18.1136C56.5947 18.5198 57.2809 18.9757 57.8315 19.4812C58.3824 19.9868 58.7977 20.56 59.0774 21.201C59.3572 21.8419 59.4973 22.5686 59.4973 23.3811C59.4973 24.2387 59.3302 25.006 58.9963 25.6831C58.6621 26.3601 58.1792 26.9334 57.5472 27.4028C56.9155 27.8723 56.1616 28.2289 55.2858 28.4725C54.4101 28.7164 53.4308 28.8382 52.3474 28.8382C51.3726 28.8382 50.411 28.7118 49.4631 28.459C48.5153 28.1973 47.6532 27.8047 46.8767 27.281C46.1094 26.7573 45.4955 26.0893 45.0352 25.2768C44.5749 24.4644 44.3447 23.503 44.3447 22.3926H48.4204C48.4204 23.0064 48.5153 23.5255 48.7048 23.9498C48.8945 24.3741 49.1608 24.7171 49.5038 24.9789C49.8558 25.2407 50.2711 25.4303 50.7495 25.5477C51.237 25.665 51.7695 25.7237 52.3474 25.7237C53.0516 25.7237 53.6294 25.6244 54.0808 25.4258C54.5411 25.2272 54.8796 24.9519 55.0963 24.5998C55.3219 24.2477 55.4348 23.8505 55.4348 23.4082ZM71.0749 8.85139V28.5674H67.0261V8.85139H71.0749ZM77.1414 8.85139V12.0336H61.0545V8.85139H77.1414ZM79.457 8.85139H86.8099C88.3175 8.85139 89.6127 9.07707 90.6961 9.52844C91.7884 9.97983 92.6279 10.6478 93.2146 11.5325C93.8016 12.4172 94.0948 13.505 94.0948 14.796C94.0948 15.8522 93.9142 16.7594 93.5534 17.5177C93.2011 18.267 92.7001 18.8944 92.0501 19.4C91.4092 19.8965 90.6554 20.2937 89.789 20.5916L88.5023 21.2687H82.1111L82.0839 18.1H86.8368C87.5499 18.1 88.1412 17.9736 88.6107 17.7209C89.0802 17.4681 89.4321 17.116 89.6669 16.6646C89.9108 16.2133 90.0326 15.6897 90.0326 15.0939C90.0326 14.4619 89.9151 13.9158 89.6806 13.4554C89.4459 12.995 89.0893 12.6429 88.6107 12.3992C88.1323 12.1554 87.5319 12.0336 86.8099 12.0336H83.5192V28.5674H79.457V8.85139ZM90.4794 28.5674L85.9838 19.7791L90.2762 19.752L94.8262 28.3779V28.5674H90.4794ZM110.453 25.3987V28.5674H99.9581V25.3987H110.453ZM101.285 8.85139V28.5674H97.2229V8.85139H101.285ZM109.085 16.8813V19.9687H99.9581V16.8813H109.085ZM110.439 8.85139V12.0336H99.9581V8.85139H110.439ZM120.839 12.2231L115.476 28.5674H111.157L118.483 8.85139H121.231L120.839 12.2231ZM125.294 28.5674L119.918 12.2231L119.485 8.85139H122.261L129.627 28.5674H125.294ZM125.05 21.228V24.4102H114.637V21.228H125.05ZM133.31 8.85139H136.75L141.814 23.3269L146.878 8.85139H150.318L143.195 28.5674H140.433L133.31 8.85139ZM131.455 8.85139H134.881L135.504 22.9613V28.5674H131.455V8.85139ZM148.747 8.85139H152.187V28.5674H148.124V22.9613L148.747 8.85139ZM160.068 8.85139V28.5674H156.019V8.85139H160.068ZM172.282 8.85139V28.5674H168.233V8.85139H172.282ZM178.348 8.85139V12.0336H162.261V8.85139H178.348Z" fill="#E50914"></path>
  </g>
  <defs>
    <linearGradient id="paint0_linear_155_2214" x1="4.63655" y1="5.24982" x2="26.3033" y2="5.24982" gradientUnits="userSpaceOnUse">
      <stop stop-color="#890915"></stop>
      <stop offset="1" stop-color="#E50914"></stop>
    </linearGradient>
    <linearGradient id="paint1_linear_155_2214" x1="2.0836" y1="29.6451" x2="19.7129" y2="34.8535" gradientUnits="userSpaceOnUse">
      <stop stop-color="#E50914"></stop>
      <stop offset="1" stop-color="#890915"></stop>
    </linearGradient>
    <clipPath id="clip0_155_2214">
      <rect width="177.872" height="38" fill="white" transform="translate(0.638184)"></rect>
    </clipPath>
  </defs>
</svg>
