<svg xmlns="http://www.w3.org/2000/svg" width="54" height="54" viewBox="0 0 54 54" fill="none"><path d="M48.2786 25.0886H47.4857V6.92756C47.4857 5.88591 47.1471 4.88692 46.5443 4.15036C45.9415 3.4138 45.1239 3 44.2714 3H16.0907C15.2382 3 14.4207 3.4138 13.8179 4.15036C13.2151 4.88692 12.8764 5.88591 12.8764 6.92756V19.8518H6.64286C5.67819 19.8518 4.75292 20.3194 4.06999 21.1519C3.38707 21.9844 3.00227 23.1139 3 24.2926L3 46.5488C3 47.7293 3.3838 48.8615 4.06697 49.6963C4.75014 50.531 5.67671 51 6.64286 51H17.3036C18.2697 51 19.1963 50.531 19.8795 49.6963C20.5626 48.8615 20.9464 47.7293 20.9464 46.5488V36.0098H26.2071V40.118H24C23.8144 40.1304 23.6398 40.2291 23.512 40.394C23.3842 40.5589 23.313 40.7773 23.313 41.0044C23.313 41.2314 23.3842 41.4499 23.512 41.6147C23.6398 41.7796 23.8144 41.8784 24 41.8907H36.3643C36.5569 41.8907 36.7417 41.7972 36.878 41.6307C37.0142 41.4642 37.0907 41.2385 37.0907 41.0031C37.0907 40.7676 37.0142 40.5419 36.878 40.3754C36.7417 40.2089 36.5569 40.1154 36.3643 40.1154H34.1636V36.0098H39.6064V42.7705C39.607 43.6529 39.8941 44.4989 40.4048 45.1229C40.9154 45.7469 41.6078 46.0977 42.33 46.0984H48.2786C49.0005 46.0977 49.6927 45.7468 50.203 45.1227C50.7134 44.4987 51 43.6526 51 42.7705V28.4165C50.9989 27.5348 50.7119 26.6895 50.2018 26.0658C49.6917 25.442 49.0002 25.0907 48.2786 25.0886ZM14.3336 6.92756C14.3341 6.35833 14.5194 5.81262 14.8489 5.41012C15.1783 5.00762 15.6249 4.78119 16.0907 4.78049H44.2736C44.7396 4.78118 45.1864 5.00753 45.5162 5.40996C45.8459 5.81239 46.0317 6.35809 46.0329 6.92756V25.0886H42.33C41.9508 25.092 41.5763 25.1911 41.2299 25.3797C40.8835 25.5683 40.5727 25.8422 40.317 26.1844C40.0613 26.5266 39.8662 26.9296 39.7439 27.3682C39.6217 27.8069 39.5748 28.2716 39.6064 28.7334H20.94V24.2821C20.94 23.6976 20.8458 23.1188 20.6627 22.5787C20.4796 22.0387 20.2113 21.548 19.873 21.1346C19.5348 20.7213 19.1332 20.3934 18.6912 20.1697C18.2492 19.946 17.7755 19.8309 17.2971 19.8309H14.3336V6.92756ZM19.4764 46.5488C19.4753 47.255 19.245 47.9319 18.8361 48.4311C18.4272 48.9303 17.873 49.211 17.295 49.2117H6.64286C6.35593 49.2123 6.0717 49.1439 5.80642 49.0103C5.54114 48.8767 5.30002 48.6805 5.09683 48.433C4.89364 48.1854 4.73237 47.8914 4.62224 47.5676C4.51211 47.2439 4.45528 46.8968 4.455 46.5462V24.29C4.4567 23.5826 4.68803 22.9049 5.09821 22.4056C5.50839 21.9064 6.06391 21.6264 6.64286 21.6271H17.3036C17.8818 21.6285 18.436 21.9098 18.8448 22.4093C19.2537 22.9089 19.4839 23.5861 19.485 24.2926L19.4764 46.5488ZM32.7021 40.1207H27.6557V36.0098H32.7107L32.7021 40.1207ZM33.4286 34.2372H20.94V30.5112H39.6064V34.2346L33.4286 34.2372ZM49.5386 42.7731C49.5386 43.1844 49.405 43.579 49.1671 43.8701C48.9293 44.1612 48.6066 44.3251 48.27 44.3258H42.33C41.9934 44.3251 41.6707 44.1612 41.4329 43.8701C41.195 43.579 41.0614 43.1844 41.0614 42.7731V28.4165C41.062 28.0059 41.1959 27.6123 41.4337 27.3222C41.6716 27.032 41.9939 26.8691 42.33 26.8691H48.2786C48.6146 26.8691 48.937 27.032 49.1748 27.3222C49.4127 27.6123 49.5466 28.0059 49.5471 28.4165L49.5386 42.7731Z" fill="#E50914"></path></svg>