<svg xmlns="http://www.w3.org/2000/svg" width="54" height="54" viewBox="0 0 54 54" fill="none"><path d="M31.8 3H19.8C7.8 3 3 7.8 3 19.8V34.2C3 46.2 7.8 51 19.8 51" stroke="#E50914" stroke-width="1.6" stroke-linecap="round" stroke-linejoin="round"></path><path d="M51 22.2V29.4" stroke="#E50914" stroke-width="1.6" stroke-linecap="round" stroke-linejoin="round"></path><path d="M51.0008 22.2H41.4008C34.2008 22.2 31.8008 19.8 31.8008 12.6V3L51.0008 22.2Z" stroke="#E50914" stroke-width="1.6" stroke-linecap="round" stroke-linejoin="round"></path><path d="M30.149 41.1573C24.2733 41.5824 24.2733 50.0834 30.149 50.5085H44.0508C45.726 50.5085 47.3762 49.8834 48.6013 48.7582C52.7269 45.1578 50.5266 37.9569 45.1009 37.2818C43.1506 25.5553 26.1985 30.0059 30.199 41.1823" stroke="#E50914" stroke-width="1.66688" stroke-miterlimit="10" stroke-linecap="round" stroke-linejoin="round"></path><line x1="9" y1="20" x2="29" y2="20" stroke="#E50914" stroke-width="2" stroke-linecap="round"></line><line x1="9" y1="27" x2="29" y2="27" stroke="#E50914" stroke-width="2" stroke-linecap="round"></line></svg>