<svg xmlns="http://www.w3.org/2000/svg" width="54" height="54" viewBox="0 0 54 54" fill="none"><path fill-rule="evenodd" clip-rule="evenodd" d="M7.94674 32.1307C7.24781 30.8205 6.70389 29.4307 6.32261 27.992L3.17176 26.7794C2.84469 26.6535 2.62891 26.3392 2.62891 25.9889V20.1741C2.62891 19.8238 2.84469 19.5095 3.17176 19.3836L6.32229 18.1711C6.76806 16.4851 7.43597 14.8733 8.31437 13.3702L6.94149 10.2826C6.79908 9.96229 6.86865 9.58736 7.11652 9.33949L11.2272 5.22882C11.4751 4.98095 11.85 4.91139 12.1703 5.0538L15.2579 6.42667C16.761 5.54827 18.3723 4.88079 20.0538 4.43936L21.2716 1.28333C21.3976 0.956682 21.7117 0.741211 22.0618 0.741211H27.8766C28.2271 0.741211 28.5415 0.957211 28.6672 1.28449L29.8795 4.43947C31.5606 4.881 33.1717 5.54838 34.6746 6.42667L37.7623 5.0538C38.0826 4.91139 38.4575 4.98095 38.7054 5.22882L42.816 9.33949C43.0636 9.58705 43.1334 9.96145 42.9915 10.2815L41.6237 13.3695C42.5023 14.8731 43.17 16.4852 43.6115 18.1716L46.7608 19.3836C47.0879 19.5095 47.3036 19.8238 47.3036 20.1741V25.9889C47.3036 26.3392 47.0879 26.6535 46.7608 26.7794L43.6111 27.9915C43.169 29.6726 42.4976 31.2837 41.6232 32.7865L42.9915 35.8756C43.1334 36.1957 43.0636 36.57 42.816 36.8177L41.5467 38.0869L47.0142 43.4327L47.7898 42.6569C48.6497 41.797 50.1075 42.3082 50.2556 43.4982L51.3586 51.5445C51.3591 51.5478 51.3596 51.5512 51.36 51.5545C51.4762 52.4846 50.7063 53.2672 49.7812 53.1724L41.7743 52.732C41.7564 52.731 41.7386 52.7294 41.7208 52.7273C40.5241 52.5851 40.0082 51.1224 40.8702 50.2604L41.6191 49.5115L36.2346 44.4721C34.23 46.1998 27.6603 51.8622 27.2306 52.2325C25.832 53.6064 23.5858 53.601 22.194 52.2162L5.32509 36.0311C5.16182 35.8745 5.06801 35.6591 5.06452 35.433C5.06102 35.2069 5.14806 34.9888 5.30625 34.8272L7.94674 32.1307ZM40.3353 36.9025L41.2072 36.0305L39.8966 33.0718C39.7839 32.8172 39.8035 32.5235 39.9488 32.2861C40.9209 30.6995 41.642 28.9733 42.0722 27.1632C42.1368 26.8914 42.3313 26.6688 42.5921 26.5685L45.6095 25.4071V20.7557L42.5921 19.5944C42.3311 19.494 42.1365 19.2713 42.0721 18.9992C41.6421 17.1843 40.9273 15.4588 39.95 13.8727C39.8036 13.6351 39.7837 13.3406 39.8966 13.0854L41.2072 10.1266L37.9189 6.83813L34.9605 8.1535C34.7051 8.26712 34.41 8.24732 34.172 8.10067C32.586 7.12338 30.8603 6.40846 29.0509 5.97847C28.7789 5.91388 28.5563 5.71916 28.456 5.45816L27.2945 2.43533H22.6429L21.4761 5.45933C21.3756 5.71969 21.1532 5.91388 20.8816 5.97847C19.0722 6.40846 17.3466 7.12338 15.7605 8.10067C15.5225 8.24732 15.2274 8.26712 14.972 8.1535L12.0137 6.83813L8.72593 10.126L10.0412 13.0842C10.1548 13.3397 10.135 13.6348 9.98836 13.8727C9.01065 15.4595 8.29562 17.1859 7.85992 19.0016C7.7948 19.2726 7.60061 19.4944 7.34046 19.5944L4.32302 20.7557V25.4071L7.34046 26.5685C7.6004 26.6685 7.79459 26.89 7.85971 27.1608C8.16761 28.4398 8.61486 29.6798 9.19573 30.8551L9.81641 30.2213C10.1405 29.8903 10.6705 29.8811 11.0059 30.2008L24.7436 43.2917L33.7485 35.3773C35.1477 33.9991 37.3986 34.0043 38.7914 35.3929L40.3353 36.9025ZM24.9692 26.6928C23.821 26.6928 22.8822 25.7864 22.8412 24.6389L22.5146 15.6522L22.5145 15.6497C22.4964 15.0513 22.6965 14.5302 23.1106 14.098L23.1122 14.0963C23.5307 13.664 24.0449 13.446 24.6453 13.446H25.293C25.8942 13.446 26.413 13.6657 26.8278 14.0978C27.2463 14.5308 27.4465 15.0548 27.4237 15.6545L27.0999 24.6383C27.0589 25.7859 26.1168 26.6928 24.9692 26.6928ZM24.9692 24.9986C25.2046 24.9986 25.3985 24.8132 25.4068 24.5778L25.7307 15.5927C25.7354 15.4703 25.6945 15.3629 25.6076 15.2731L25.606 15.2714C25.5216 15.1834 25.4154 15.1402 25.293 15.1402H24.6453C24.5222 15.1402 24.4168 15.185 24.3293 15.2747C24.2449 15.3644 24.2044 15.4727 24.2078 15.5966L24.5342 24.5776C24.5425 24.8124 24.7343 24.9986 24.9692 24.9986ZM24.9692 32.7169C23.597 32.7169 22.4785 31.5983 22.4785 30.2262C22.4785 28.8539 23.597 27.7354 24.9692 27.7354C26.3414 27.7354 27.4599 28.8539 27.4599 30.2262C27.4599 31.5983 26.3414 32.7169 24.9692 32.7169ZM24.9692 31.0228C25.4081 31.0228 25.7658 30.665 25.7658 30.2262C25.7658 29.7873 25.4081 29.4295 24.9692 29.4295C24.5304 29.4295 24.1726 29.7873 24.1726 30.2262C24.1726 30.665 24.5304 31.0228 24.9692 31.0228ZM35.7021 42.6946C36.0941 42.3586 36.4696 42.4069 36.8367 42.7153L43.416 48.8729C43.5836 49.0297 43.6803 49.2478 43.6842 49.4774C43.688 49.7068 43.5984 49.928 43.4362 50.0903L42.4538 51.0727L49.6381 51.4679L48.642 44.2006L47.6198 45.2228C47.2917 45.5509 46.7605 45.5539 46.4286 45.2295L37.6043 36.6014C37.602 36.5992 37.5997 36.597 37.5975 36.5948C36.8599 35.8572 35.6642 35.8572 34.9267 36.5948C34.9138 36.6076 34.9006 36.62 34.8869 36.632L25.2797 45.0761C24.9501 45.3658 24.4538 45.3557 24.1362 45.053L10.4422 32.0036L7.11546 35.4011L23.3726 50.9993C23.3768 51.0034 23.381 51.0075 23.3851 51.0116C24.1226 51.7491 25.3183 51.7491 26.0559 51.0116C26.0706 50.9968 26.086 50.9826 26.1019 50.9689L35.7021 42.6946Z" fill="#E50914"></path></svg>