<svg xmlns="http://www.w3.org/2000/svg" width="54" height="54" viewBox="0 0 54 54" fill="none"><path d="M32.7939 44.0356C32.7939 43.9817 32.8057 43.9286 32.8281 43.8804C32.8507 43.832 32.8841 43.7893 32.9238 43.7563C32.9634 43.7236 33.0092 43.7001 33.0576 43.688C33.106 43.6759 33.1564 43.675 33.2051 43.6851L33.208 43.686L37.999 44.6499V44.6509C38.4865 44.7509 38.9901 44.739 39.4727 44.6167C39.9546 44.4945 40.4033 44.2654 40.7861 43.9458C41.1629 43.6335 41.4659 43.2403 41.6738 42.7954C41.8818 42.3505 41.9893 41.8645 41.9893 41.3726V32.0044C41.9893 31.9072 42.0274 31.8149 42.0928 31.7485C42.1578 31.6825 42.2445 31.647 42.333 31.647H44.751V31.646C45.0123 31.6483 45.2695 31.5819 45.4961 31.4517C45.7247 31.3202 45.9138 31.1296 46.0449 30.9009L46.0439 30.8999C46.1734 30.6797 46.2446 30.4298 46.249 30.1753C46.2535 29.9173 46.1908 29.6622 46.0664 29.436H46.0654L42.0361 21.9937L42.0342 21.9907C42.0055 21.9384 41.99 21.8787 41.9893 21.8179C41.9765 19.3797 41.4569 16.9713 40.4648 14.7505C39.4723 12.5288 38.0289 10.544 36.2285 8.92725C34.4281 7.31047 32.3113 6.09748 30.0166 5.36865C27.8653 4.6854 25.6032 4.44201 23.3613 4.65088L22.9131 4.69873C19.6865 5.04241 16.6257 6.32037 14.0947 8.37939C11.5621 10.4398 9.66717 13.1959 8.63379 16.3179C7.60048 19.4397 7.47171 22.7971 8.26367 25.9907C9.05572 29.1845 10.735 32.0811 13.1025 34.3345L13.1172 34.3481L13.1328 34.3608C13.1734 34.3937 13.2073 34.4359 13.2305 34.4849C13.2536 34.5338 13.2657 34.5881 13.2656 34.6431V50.1606H32.7939V44.0356ZM12.5781 34.8062L12.4287 34.6587C10.0207 32.2898 8.32647 29.2716 7.54688 25.9575C6.76729 22.6434 6.9351 19.1715 8.0293 15.9507C9.1235 12.73 11.099 9.89443 13.7227 7.77588C16.3463 5.65737 19.5095 4.34349 22.8408 3.98779H22.8438C25.352 3.70314 27.8917 3.95807 30.2969 4.73584C32.5517 5.46505 34.642 6.63822 36.4482 8.18799L36.8057 8.50244C38.6214 10.1543 40.0803 12.1716 41.0908 14.4263C42.1015 16.6815 42.6408 19.1258 42.6748 21.604L42.6768 21.7271L42.7354 21.8354L46.6641 29.0903L46.665 29.0933C46.8479 29.4266 46.9423 29.8034 46.9365 30.186C46.9307 30.5686 46.8256 30.9426 46.6328 31.27L46.6299 31.2739C46.4373 31.6078 46.1623 31.8834 45.833 32.0737C45.5038 32.264 45.1316 32.3633 44.7539 32.3608H42.6768V41.3726C42.6773 41.9721 42.5465 42.5638 42.2939 43.105C42.0413 43.6463 41.6736 44.1237 41.2178 44.5015L41.2158 44.5024C40.7546 44.8879 40.2149 45.164 39.6367 45.311C39.0588 45.4579 38.4561 45.4719 37.8721 45.353H37.8701L34.085 44.5913L33.4863 44.4712V50.5171C33.4863 50.6143 33.4481 50.7066 33.3828 50.7729C33.3178 50.839 33.2311 50.8744 33.1426 50.8745H12.9219C12.8334 50.8745 12.7467 50.8389 12.6816 50.7729C12.6163 50.7065 12.5781 50.6143 12.5781 50.5171V34.8062Z" fill="#E50914" stroke="#E50914"></path><path d="M23.2344 11.7314C24.0201 11.5433 24.8373 11.5362 25.626 11.7109C26.7145 11.9516 27.7052 12.5294 28.46 13.3652C29.2146 14.2011 29.6969 15.2547 29.8398 16.3818C29.9828 17.5091 29.7789 18.6532 29.2568 19.6572C28.7672 20.5987 28.0207 21.3734 27.1104 21.8896L26.9268 21.9893C26.3095 22.2896 25.7865 22.7562 25.4141 23.3369C25.0393 23.9214 24.831 24.599 24.8125 25.2949V25.6602C24.8125 25.7574 24.7743 25.8496 24.709 25.916C24.6439 25.982 24.5573 26.0176 24.4688 26.0176C24.3802 26.0176 24.2936 25.982 24.2285 25.916C24.1632 25.8496 24.125 25.7574 24.125 25.6602V25.3164C24.1393 24.4867 24.3796 23.6779 24.8184 22.9795C25.2571 22.2811 25.8769 21.7204 26.6084 21.3594L26.6162 21.3555C27.4842 20.9078 28.1939 20.1993 28.6484 19.3281C29.1029 18.4569 29.2814 17.4644 29.1592 16.4873C29.0369 15.5102 28.6201 14.5942 27.9648 13.8652C27.3094 13.1362 26.4468 12.6301 25.4951 12.417L25.4941 12.416C24.799 12.2615 24.0783 12.2676 23.3857 12.4336C22.693 12.5996 22.0461 12.9218 21.4932 13.375H21.4922C20.9463 13.8236 20.5074 14.3907 20.2061 15.0332C19.9049 15.6755 19.749 16.378 19.75 17.0889C19.75 17.1861 19.7118 17.2783 19.6465 17.3447C19.5814 17.4107 19.4948 17.4463 19.4062 17.4463C19.3177 17.4463 19.2311 17.4107 19.166 17.3447C19.1007 17.2783 19.0625 17.1861 19.0625 17.0889L19.0713 16.7812C19.111 16.0635 19.2885 15.3596 19.5947 14.71C19.9446 13.9677 20.4532 13.315 21.083 12.7998C21.7129 12.2846 22.4485 11.9197 23.2344 11.7314Z" fill="#E50914" stroke="#E50914"></path><path d="M24.4688 27.8447C24.5573 27.8447 24.6439 27.8803 24.709 27.9463C24.7743 28.0127 24.8125 28.1049 24.8125 28.2021V29.0889C24.8125 29.1861 24.7743 29.2783 24.709 29.3447C24.6439 29.4107 24.5573 29.4463 24.4688 29.4463C24.3802 29.4463 24.2936 29.4107 24.2285 29.3447C24.1632 29.2783 24.125 29.1861 24.125 29.0889V28.2021C24.125 28.1049 24.1632 28.0127 24.2285 27.9463C24.2774 27.8967 24.3385 27.8646 24.4033 27.8516L24.4688 27.8447Z" fill="#E50914" stroke="#E50914"></path></svg>