<svg xmlns="http://www.w3.org/2000/svg" width="54" height="54" viewBox="0 0 54 54" fill="none"><path d="M9.67916 21.3467C9.3752 21.0129 9.39119 20.4789 9.71916 20.1701C10.6311 19.2773 11.9189 18.9185 13.1668 19.2189C14.5426 19.5443 15.6385 20.6875 15.9505 22.1227C16.3584 23.9835 15.4945 25.8276 13.8467 26.612C13.3748 26.8373 13.0868 27.2879 13.0868 27.7802C13.0868 28.2391 12.7268 28.6146 12.2869 28.6146C11.8469 28.6146 11.487 28.2391 11.487 27.7802C11.487 26.6203 12.1349 25.594 13.1828 25.0933C14.1267 24.6427 14.6226 23.5746 14.3907 22.4982C14.2147 21.6971 13.5747 21.0296 12.8068 20.846C12.0709 20.6708 11.343 20.871 10.807 21.3967C10.4871 21.7138 9.97513 21.6971 9.67916 21.355V21.3467ZM12.3029 31.0345C11.8549 31.0345 11.495 31.3933 11.487 31.8523V32.0943C11.471 32.5532 11.8229 32.937 12.2629 32.9454H12.2789C12.7108 32.9454 13.0708 32.5866 13.0788 32.1276V31.8856C13.0948 31.4267 12.7428 31.0429 12.3029 31.0345ZM2 26.0279C2 20.9461 5.25565 16.6488 9.70316 15.272C10.5351 13.3527 11.6629 11.6255 13.0948 10.1318C19.6621 3.2894 30.3489 3.2894 36.9162 10.1318C42.4196 15.8811 43.3955 24.868 39.3559 31.7354C40.9878 33.3459 42.9635 34.8562 45.5313 36.4584C46.2992 36.909 47.0831 37.5348 47.819 38.3025C50.6347 41.2397 50.7227 44.2437 48.091 47.0057C46.8111 48.3324 45.4753 49 44.1234 49C42.6756 49 41.2037 48.2407 39.7479 46.722C39.044 45.9877 38.452 45.1866 37.9721 44.3271C36.4123 41.6069 34.9404 39.5208 33.3566 37.8018C30.7809 39.3205 27.8852 40.1132 24.9815 40.1132C21.5979 40.1132 18.2062 39.0535 15.3106 36.9173C14.4946 37.1259 13.6387 37.2511 12.7588 37.2511C6.83147 37.2511 2 32.2194 2 26.0279ZM44.7313 37.8936C42.1396 36.2748 40.1238 34.7478 38.444 33.1206C37.9801 33.7631 37.4841 34.389 36.9242 34.9814C36.2443 35.6907 35.5004 36.3165 34.7324 36.8839C36.3163 38.6529 37.7961 40.7641 39.3479 43.476C39.7559 44.2103 40.2838 44.9196 40.8758 45.5371C43.0675 47.8234 44.9473 47.9152 46.9551 45.8208C48.9629 43.7263 48.8749 41.7654 46.6831 39.479C46.0512 38.8198 45.3873 38.2858 44.7233 37.8936H44.7313ZM11.6709 14.8714C12.0309 14.838 12.3909 14.813 12.7508 14.813C13.7747 14.813 14.7666 14.9716 15.7105 15.2553C16.0305 14.813 16.3744 14.3791 16.7664 13.9702C21.3099 9.23895 28.7011 9.23895 33.2366 13.9702C37.1482 18.0506 37.7721 24.4925 34.7084 29.2905C34.2845 29.9664 33.7885 30.6006 33.2366 31.1764C31.0048 33.5045 28.0132 34.7394 24.9895 34.7394C23.4777 34.7394 21.9578 34.414 20.51 33.7798C19.5741 34.8062 18.4542 35.6406 17.1983 36.2331C23.0937 39.8879 30.8289 38.97 35.7723 33.8132C36.5082 33.0372 37.1562 32.2111 37.7001 31.3516C41.6997 25.085 40.8918 16.6571 35.7723 11.3084C29.829 5.11682 20.158 5.11682 14.2147 11.3084C13.1988 12.3681 12.3429 13.5613 11.6629 14.8631L11.6709 14.8714ZM32.1087 29.9915C32.5807 29.4991 33.0046 28.9484 33.3726 28.3643C36.0123 24.2255 35.4844 18.6681 32.1087 15.1468C28.1891 11.0664 21.8138 11.0664 17.8943 15.1468C17.6703 15.3804 17.4623 15.6141 17.2703 15.8644C20.9499 17.6501 23.5097 21.5302 23.5097 26.0279C23.5097 28.406 22.7897 30.6089 21.5819 32.428C25.2135 33.8132 29.333 32.887 32.1167 29.9915H32.1087ZM3.59983 26.0279C3.59983 31.2932 7.70338 35.5822 12.7588 35.5822C17.8143 35.5822 21.9178 31.3015 21.9178 26.0279C21.9178 20.7542 17.8143 16.4735 12.7588 16.4735C7.70338 16.4735 3.59983 20.7542 3.59983 26.0279Z" fill="#E50914"></path></svg>