<svg xmlns="http://www.w3.org/2000/svg" width="54" height="54" viewBox="0 0 54 54" fill="none"><path d="M50.8709 39.1404C49.2988 36.6129 46.6331 35.6921 42.9484 36.4038C39.953 36.9823 36.6744 38.5438 34.0352 39.8027C33.8318 38.1577 32.5094 36.8836 30.9124 36.8836H24.3364C22.8934 36.8787 21.8828 36.3067 20.6075 34.7729C19.7421 33.7318 19.2594 33.7318 17.8265 33.7318H12.5914V32.6238C12.5914 31.7209 11.9024 30.9863 11.0557 30.9863H4.53571C3.68893 30.9863 3 31.7209 3 32.6238V48.3519C3 49.2548 3.68893 49.9894 4.53571 49.9894H11.0559C11.9026 49.9894 12.5916 49.2548 12.5916 48.3519V47.2822C14.3602 47.7488 15.9909 48.1829 17.4545 48.5725C20.4583 49.3721 22.8309 50.0037 24.6478 50.4521C26.1433 50.8213 27.2761 51 28.2531 51C30.0198 51 31.2755 50.4153 33.2389 49.3144C44.9271 43.124 50.4958 40.373 50.5507 40.3461C50.7558 40.2449 50.9091 40.0534 50.9707 39.8216C51.0322 39.5899 50.9958 39.3411 50.871 39.1403L50.8709 39.1404ZM11.0432 48.3383H4.54838V32.6375H11.0432V48.3383ZM32.5422 47.8399C32.5368 47.8427 32.5315 47.8457 32.5261 47.8487C29.784 49.3864 28.8232 49.7877 24.9968 48.8437C23.193 48.3986 20.8261 47.7684 17.8296 46.9708C16.2633 46.5538 14.5057 46.086 12.5916 45.5816V35.3831H17.8267C18.3663 35.3831 18.7924 35.3831 18.9887 35.4467C19.0767 35.4751 19.1613 35.522 19.4492 35.8683C21.0185 37.756 22.4332 38.5286 24.3342 38.535H30.9126C31.7962 38.535 32.5151 39.3019 32.5151 40.2444C32.5151 41.1869 31.7963 41.9545 30.9126 41.9545H24.3542C24.0003 41.9351 23.6674 41.9194 23.3548 41.9046C20.1833 41.755 19.9175 41.6267 19.7994 40.1885C19.7621 39.7342 19.3865 39.3976 18.9606 39.438C18.5347 39.4779 18.2196 39.8783 18.257 40.3324C18.33 41.2215 18.5724 42.4708 19.8298 43.0532C20.6421 43.4295 21.694 43.4791 23.2864 43.5541C23.6014 43.5691 23.9372 43.5849 24.2944 43.6045C24.3077 43.6052 24.321 43.6056 24.3343 43.6056H30.9127C32.1396 43.6056 33.2042 42.8531 33.7244 41.7586C34.0234 41.6173 34.3301 41.4711 34.6449 41.3211C39.442 39.0328 45.9009 35.9514 49.005 39.2949C47 40.3019 41.6047 43.0402 32.5423 47.84L32.5422 47.8399ZM19.9048 23.4143C19.4032 21.907 19.1489 20.3246 19.1489 18.7111C19.1489 12.5926 22.8347 7.26516 28.1392 5.37604L26.7748 4.542C26.4038 4.31528 26.2754 3.81085 26.488 3.41519C26.7007 3.01974 27.1738 2.8826 27.5447 3.10953L30.6 4.97698C30.7781 5.08585 30.9084 5.26572 30.9622 5.47707C31.016 5.68842 30.9888 5.9138 30.8867 6.10378L29.1354 9.36181C28.9923 9.62785 28.7314 9.77687 28.463 9.77687C28.3324 9.77687 28.2001 9.74158 28.0787 9.66738C27.7078 9.44066 27.5794 8.93612 27.7921 8.54057L28.6565 6.93225C23.9616 8.59124 20.6972 13.3006 20.6972 18.7109C20.6972 20.1358 20.9215 21.5324 21.3639 22.8621C21.507 23.2917 21.2961 23.7637 20.8932 23.9162C20.8077 23.9486 20.7202 23.964 20.6344 23.964C20.3158 23.964 20.0174 23.7527 19.9047 23.4142L19.9048 23.4143ZM33.8286 5.54415C33.9058 5.09565 34.3099 4.79896 34.7299 4.88121C40.9828 6.10492 45.5213 11.9214 45.5213 18.7111C45.5213 19.6258 45.4395 20.5303 45.2773 21.417L46.6946 20.541C47.0647 20.3125 47.5383 20.447 47.7527 20.8414C47.967 21.2359 47.8409 21.741 47.471 21.9697L44.424 23.8526C44.4152 23.8581 44.4058 23.8619 44.3968 23.867C44.3837 23.8744 44.3705 23.8813 44.3571 23.8879C44.3364 23.8979 44.3156 23.9067 44.2944 23.9147C44.2807 23.9199 44.2672 23.9253 44.2532 23.9296C44.2307 23.9366 44.2079 23.9419 44.185 23.9466C44.1716 23.9494 44.1586 23.953 44.145 23.9551C44.1142 23.9597 44.0831 23.9621 44.0519 23.9627C44.0465 23.9627 44.0413 23.9641 44.0359 23.9641C44.0056 23.9641 43.9752 23.9615 43.9447 23.9576C43.9392 23.9568 43.9336 23.9561 43.9281 23.9553C43.8981 23.9508 43.8681 23.9448 43.8382 23.9363C43.8377 23.9362 43.8372 23.9362 43.8367 23.936C43.8322 23.9348 43.8281 23.9329 43.8236 23.9316C43.8081 23.9268 43.7925 23.9222 43.777 23.9163C43.7749 23.9155 43.7729 23.9143 43.7708 23.9136C43.7573 23.9083 43.7443 23.9021 43.7311 23.8962C43.7202 23.8912 43.7091 23.8866 43.6984 23.8811C43.6883 23.8758 43.6785 23.8697 43.6685 23.864C43.6555 23.8565 43.6425 23.8494 43.6301 23.8413C43.6236 23.837 43.6176 23.8322 43.6112 23.8277C43.5961 23.8172 43.581 23.8066 43.5668 23.795C43.5628 23.7918 43.5592 23.7882 43.5554 23.7849C43.5395 23.7715 43.5237 23.7578 43.509 23.7431C43.5053 23.7394 43.5019 23.7353 43.4982 23.7315C43.4839 23.7167 43.4698 23.7018 43.4568 23.6861C43.4519 23.6803 43.4477 23.674 43.443 23.6681C43.4317 23.6537 43.4204 23.6392 43.4101 23.624C43.4045 23.6158 43.3996 23.607 43.3943 23.5986C43.3856 23.5849 43.3769 23.5714 43.3691 23.5573C43.3681 23.5556 43.3671 23.5541 43.3661 23.5523L41.6003 20.3032C41.386 19.9087 41.5121 19.4036 41.8821 19.1749C42.2521 18.9464 42.7257 19.0808 42.9401 19.4753L43.7723 21.0065C43.9043 20.2537 43.9731 19.487 43.9731 18.7112C43.9731 12.7186 39.9683 7.58528 34.4505 6.50532C34.0299 6.42307 33.7516 5.99274 33.8288 5.54435L33.8286 5.54415ZM22.9018 26.4761L26.4231 26.5227C26.8505 26.5284 27.1929 26.9026 27.1876 27.3585C27.1823 27.8109 26.8367 28.1738 26.4136 28.1738C26.4103 28.1738 26.4071 28.1738 26.4037 28.1738L24.7822 28.1523C26.8746 30.0569 29.5434 31.1214 32.335 31.1214C35.7452 31.1214 38.9725 29.5337 41.1893 26.7654C41.4669 26.4187 41.9555 26.3775 42.2807 26.6737C42.6058 26.9698 42.6443 27.4909 42.3667 27.8377C39.8554 30.9738 36.199 32.7724 32.335 32.7724C29.1117 32.7724 26.0335 31.5198 23.6432 29.2842L23.6223 31.0667C23.617 31.5191 23.2714 31.882 22.8484 31.882C22.8451 31.882 22.8419 31.882 22.8385 31.882C22.411 31.8763 22.0686 31.5021 22.074 31.0462L22.1177 27.2911C22.1177 27.2825 22.1189 27.2739 22.1193 27.2653C22.1198 27.251 22.1205 27.2367 22.1218 27.2224C22.123 27.2086 22.1248 27.1951 22.1266 27.1814C22.1284 27.1687 22.1302 27.1562 22.1324 27.1436C22.135 27.1292 22.1381 27.1152 22.1414 27.1012C22.1441 27.0894 22.147 27.0776 22.1503 27.066C22.1542 27.0521 22.1584 27.0384 22.163 27.0249C22.167 27.013 22.171 27.0014 22.1755 26.9897C22.1803 26.977 22.1855 26.9647 22.1909 26.9523C22.1962 26.9402 22.2017 26.928 22.2077 26.916C22.2132 26.9049 22.2191 26.8939 22.2251 26.883C22.2319 26.8707 22.2389 26.8585 22.2463 26.8466C22.2527 26.8362 22.2594 26.8263 22.2662 26.8164C22.2741 26.8049 22.282 26.7933 22.2906 26.7821C22.2984 26.7718 22.3065 26.7621 22.3146 26.7524C22.3231 26.7423 22.3315 26.7323 22.3404 26.7226C22.3502 26.712 22.3605 26.702 22.3709 26.692C22.3772 26.6859 22.3828 26.6794 22.3893 26.6735C22.3915 26.6714 22.3939 26.6699 22.3961 26.6679C22.4076 26.6576 22.4197 26.6481 22.4318 26.6386C22.4404 26.6319 22.4487 26.6248 22.4573 26.6185C22.4693 26.6098 22.4819 26.602 22.4944 26.5939C22.5036 26.5881 22.5127 26.5817 22.5221 26.5761C22.5346 26.5689 22.5476 26.5627 22.5604 26.5562C22.5703 26.5511 22.58 26.5456 22.59 26.5411C22.603 26.5352 22.6166 26.5304 22.63 26.5252C22.6402 26.5213 22.6502 26.5168 22.6604 26.5134C22.6737 26.509 22.6875 26.5057 22.7011 26.502C22.7118 26.4991 22.7224 26.4956 22.7333 26.4932C22.7459 26.4904 22.7588 26.4887 22.7717 26.4866C22.7839 26.4845 22.7961 26.4821 22.8084 26.4807C22.82 26.4794 22.8319 26.4791 22.8437 26.4783C22.8574 26.4773 22.8711 26.4762 22.8848 26.4761C22.8872 26.4761 22.8895 26.4757 22.8918 26.4757H22.9017L22.9018 26.4761ZM38.093 24.6503C38.5204 24.6503 38.8671 24.2809 38.8672 23.825C38.8679 20.928 37.5229 18.6438 35.1771 17.5579C34.9299 17.4435 34.6448 17.4744 34.4243 17.6393C33.811 18.098 33.0893 18.3406 32.3372 18.3406C31.5924 18.3406 30.8763 18.1022 30.2666 17.6514C30.0457 17.4882 29.7614 17.4586 29.5153 17.5734C27.1596 18.6716 25.8081 20.95 25.8073 23.8244C25.8073 24.0434 25.8888 24.2534 26.034 24.4083C26.1791 24.5632 26.3762 24.6502 26.5815 24.6502H38.0931L38.093 24.6503ZM29.7769 19.272C30.5551 19.7442 31.4314 19.9918 32.3372 19.9918C33.2526 19.9918 34.1368 19.7395 34.9204 19.2582C35.8373 19.7811 37.027 20.8614 37.2731 22.9993H27.4031C27.6544 20.8804 28.8542 19.7986 29.777 19.2721L29.7769 19.272ZM28.9771 14.1776C28.9771 16.1518 30.4844 17.7578 32.3372 17.7578C34.1901 17.7578 35.6974 16.1518 35.6974 14.1776C35.6974 12.2034 34.1901 10.5974 32.3372 10.5974C30.4844 10.5974 28.9771 12.2034 28.9771 14.1776ZM32.3372 12.2485C33.3362 12.2485 34.149 13.1139 34.149 14.1776C34.149 15.2412 33.3362 16.1067 32.3372 16.1067C31.3382 16.1067 30.5254 15.2412 30.5254 14.1776C30.5254 13.1139 31.3381 12.2485 32.3372 12.2485Z" fill="#E50914"></path></svg>