<svg xmlns="http://www.w3.org/2000/svg" width="54" height="54" viewBox="0 0 54 54" fill="none"><path fill-rule="evenodd" clip-rule="evenodd" d="M21.4117 22.2314V14.5182H17.1258C16.7725 14.5182 16.4566 14.301 16.3283 13.9713C16.2 13.6416 16.2868 13.2665 16.5474 13.0277L26.8585 3.59883C27.1862 3.29875 27.6896 3.30073 28.0173 3.60081L38.277 13.0296C38.5376 13.2685 38.6245 13.6436 38.4962 13.9713C38.3678 14.301 38.05 14.5182 37.6966 14.5182H33.4127V22.2314C33.4147 22.3262 33.3989 22.4229 33.3693 22.5177C33.2192 22.9658 32.7336 23.2106 32.2855 23.0606C30.7594 22.5552 29.1307 22.2808 27.4369 22.2808C25.7253 22.2808 24.0808 22.5611 22.541 23.0764C22.0928 23.2264 21.6072 22.9856 21.4572 22.5374C21.4236 22.4368 21.4078 22.3321 21.4117 22.2314ZM31.6971 21.1022V13.6614C31.6971 13.1876 32.0821 12.8046 32.5539 12.8046H35.4974L27.4349 5.39536L19.3349 12.8046H22.2685C22.7423 12.8046 23.1273 13.1876 23.1273 13.6614V21.116C24.5033 20.7587 25.9484 20.5672 27.4369 20.5672C28.9077 20.5672 30.335 20.7528 31.6971 21.1022ZM27.4369 23.9964C34.992 23.9964 41.1258 30.1303 41.1258 37.6856C41.1258 45.2409 34.992 51.3748 27.4369 51.3748C19.8818 51.3748 13.748 45.2409 13.748 37.6856C13.748 30.1303 19.8818 23.9964 27.4369 23.9964ZM27.4369 25.71C20.8274 25.71 15.4616 31.0759 15.4616 37.6856C15.4616 44.2952 20.8274 49.6611 27.4369 49.6611C34.0464 49.6611 39.4122 44.2952 39.4122 37.6856C39.4122 31.0759 34.0464 25.71 27.4369 25.71ZM27.4369 38.5424C24.7422 38.5424 22.6081 36.5682 22.6081 34.211C22.6081 32.1104 24.3039 30.3139 26.5801 29.9467V28.7503C26.5801 28.2785 26.9631 27.8935 27.4369 27.8935C27.9107 27.8935 28.2937 28.2785 28.2937 28.7503V29.9467C30.5699 30.3139 32.2657 32.1104 32.2657 34.211C32.2657 34.6848 31.8807 35.0678 31.4069 35.0678C30.9351 35.0678 30.5502 34.6848 30.5502 34.211C30.5502 32.7323 29.1268 31.5932 27.4369 31.5932C25.747 31.5932 24.3236 32.7323 24.3236 34.211C24.3236 35.6896 25.747 36.8288 27.4369 36.8288C30.1316 36.8288 32.2657 38.803 32.2657 41.1602C32.2657 43.2607 30.5699 45.0573 28.2937 45.4245V46.6208C28.2937 47.0927 27.9107 47.4777 27.4369 47.4777C26.9631 47.4777 26.5801 47.0927 26.5801 46.6208V45.4245C24.3039 45.0573 22.6081 43.2607 22.6081 41.1602C22.6081 40.6864 22.9931 40.3034 23.4669 40.3034C23.9387 40.3034 24.3236 40.6864 24.3236 41.1602C24.3236 42.6389 25.747 43.778 27.4369 43.778C29.1268 43.778 30.5502 42.6389 30.5502 41.1602C30.5502 39.6815 29.1268 38.5424 27.4369 38.5424Z" fill="#E50914"></path></svg>