<svg xmlns="http://www.w3.org/2000/svg" width="54" height="54" viewBox="0 0 54 54" fill="none"><path d="M50.5582 46.4L49.2371 44.4V34C49.2371 32.6739 48.6572 31.4021 47.6249 30.4645C46.5926 29.5268 45.1926 29 43.7327 29V25C45.1926 25 46.5926 24.4732 47.6249 23.5355C48.6572 22.5979 49.2371 21.3261 49.2371 20V8C49.2371 6.67392 48.6572 5.40215 47.6249 4.46447C46.5926 3.52678 45.1926 3 43.7327 3H8.50442C7.04456 3 5.64449 3.52678 4.61221 4.46447C3.57993 5.40215 3 6.67392 3 8V20C3 21.3261 3.57993 22.5979 4.61221 23.5355C5.64449 24.4732 7.04456 25 8.50442 25V29C7.04456 29 5.64449 29.5268 4.61221 30.4645C3.57993 31.4021 3 32.6739 3 34V46C3 47.3261 3.57993 48.5979 4.61221 49.5355C5.64449 50.4732 7.04456 51 8.50442 51H47.6519C48.2413 50.9933 48.8186 50.8471 49.3268 50.5759C49.8351 50.3046 50.2567 49.9177 50.5501 49.4534C50.8435 48.989 50.9986 48.4631 51 47.9277C51.0014 47.3922 50.8491 46.8657 50.5582 46.4ZM4.5 20L4.61221 8.5C4.61221 7.70435 5.38063 6.06261 6 5.5C6.61937 4.93739 7.6285 4.46447 8.50442 4.46447H43.7327C44.6086 4.46447 46.3806 4.93739 47 5.5C47.6194 6.06261 48 7.20435 48 8V20C48 20.7956 47.1194 21.9374 46.5 22.5C45.8806 23.0626 44.6086 23.6826 43.7327 23.6826H8.50442C7.6285 23.6826 6.61937 23.0626 6 22.5C5.38063 21.9374 4.5 20.7956 4.5 20ZM41.5309 25V29H10.7062V25H41.5309ZM32.2835 49.5355L9 49.5C8.12408 49.5 6.61937 49.0626 6 48.5C5.38063 47.9374 4.5 46.7957 4.5 46V34C4.5 33.2044 5.38063 32.0626 6 31.5C6.61937 30.9374 7.6285 30 8.50442 30L44 30.5C44.8759 30.5 46 31 46.5 31.5C47.2403 32.2403 47.5 33.2044 47.5 34L47.6249 37.5L47.6519 39.5L47.6249 42.216L44.3492 36.62C44.1809 36.3615 43.9733 36.1259 43.7327 35.92C43.0979 35.3698 42.2542 35.0629 41.3768 35.0629C40.4994 35.0629 39.6557 35.3698 39.0209 35.92C38.8228 36.1055 38.6526 36.314 38.5145 36.54L32.2835 46.4C32.0287 46.7883 31.8744 47.2242 31.8325 47.6746C31.7905 48.1251 32.1041 49.1139 32.2835 49.5355ZM48.2683 48.84C48.0824 48.9427 47.8694 48.9979 47.6519 49H35.2119C35.0078 48.9955 34.8084 48.9433 34.633 48.8485C34.4576 48.7537 34.312 48.6194 34.2102 48.4587C34.1085 48.2979 34.054 48.1161 34.052 47.9307C34.0501 47.7452 34.1007 47.5625 34.199 47.4L40.43 37.62C40.5364 37.4628 40.6854 37.333 40.8627 37.243C41.04 37.153 41.2397 37.1057 41.4429 37.1057C41.646 37.1057 41.8457 37.153 42.023 37.243C42.2003 37.333 42.3493 37.4628 42.4557 37.62L47.0354 44.84L48.0922 46.52L48.6647 47.4C48.7635 47.5587 48.8166 47.7376 48.8188 47.92C48.6705 48.243 48.4861 48.5513 48.2683 48.84Z" fill="#E50914"></path><path d="M41.5306 39C41.2386 39 40.9586 39.1054 40.7521 39.2929C40.5457 39.4804 40.4297 39.7348 40.4297 40V44C40.4297 44.2652 40.5457 44.5196 40.7521 44.7071C40.9586 44.8946 41.2386 45 41.5306 45C41.8225 45 42.1026 44.8946 42.309 44.7071C42.5155 44.5196 42.6315 44.2652 42.6315 44V40C42.6315 39.7348 42.5155 39.4804 42.309 39.2929C42.1026 39.1054 41.8225 39 41.5306 39Z" fill="#E50914"></path><path d="M42.3016 46.3001C42.1506 46.1593 41.9565 46.0631 41.7444 46.0239C41.5324 45.9846 41.3123 46.0042 41.1127 46.0801C40.8475 46.1867 40.6356 46.3792 40.5182 46.6201C40.4558 46.7385 40.4256 46.8688 40.4301 47.0001C40.4284 47.1312 40.4569 47.2613 40.5137 47.3818C40.5706 47.5024 40.6546 47.6108 40.7604 47.7001C40.8534 47.8013 40.9753 47.8774 41.1127 47.9201C41.2504 47.9484 41.3933 47.9484 41.531 47.9201C41.8069 47.9164 42.0716 47.8205 42.2747 47.6508C42.4777 47.4812 42.6049 47.2495 42.6319 47.0001C42.6647 46.8752 42.6647 46.745 42.6319 46.6201C42.5611 46.4848 42.4457 46.373 42.3016 46.3001Z" fill="#E50914"></path><path d="M10.7064 15H15.1099C15.4019 15 15.6819 14.8946 15.8883 14.7071C16.0948 14.5196 16.2108 14.2652 16.2108 14C16.2108 13.7348 16.0948 13.4804 15.8883 13.2929C15.6819 13.1054 15.4019 13 15.1099 13H10.7064C10.4144 13 10.1344 13.1054 9.92791 13.2929C9.72145 13.4804 9.60547 13.7348 9.60547 14C9.60547 14.2652 9.72145 14.5196 9.92791 14.7071C10.1344 14.8946 10.4144 15 10.7064 15Z" fill="#E50914"></path><path d="M15.1099 39H10.7064C10.4144 39 10.1344 39.1054 9.92791 39.2929C9.72145 39.4804 9.60547 39.7348 9.60547 40C9.60547 40.2652 9.72145 40.5196 9.92791 40.7071C10.1344 40.8946 10.4144 41 10.7064 41H15.1099C15.4019 41 15.6819 40.8946 15.8883 40.7071C16.0948 40.5196 16.2108 40.2652 16.2108 40C16.2108 39.7348 16.0948 39.4804 15.8883 39.2929C15.6819 39.1054 15.4019 39 15.1099 39Z" fill="#E50914"></path><path d="M19.513 15H21.7148C22.0067 15 22.2867 14.8946 22.4932 14.7071C22.6997 14.5196 22.8156 14.2652 22.8156 14C22.8156 13.7348 22.6997 13.4804 22.4932 13.2929C22.2867 13.1054 22.0067 13 21.7148 13H19.513C19.221 13 18.941 13.1054 18.7345 13.2929C18.5281 13.4804 18.4121 13.7348 18.4121 14C18.4121 14.2652 18.5281 14.5196 18.7345 14.7071C18.941 14.8946 19.221 15 19.513 15Z" fill="#E50914"></path><path d="M21.7148 39H19.513C19.221 39 18.941 39.1054 18.7345 39.2929C18.5281 39.4804 18.4121 39.7348 18.4121 40C18.4121 40.2652 18.5281 40.5196 18.7345 40.7071C18.941 40.8946 19.221 41 19.513 41H21.7148C22.0067 41 22.2867 40.8946 22.4932 40.7071C22.6997 40.5196 22.8156 40.2652 22.8156 40C22.8156 39.7348 22.6997 39.4804 22.4932 39.2929C22.2867 39.1054 22.0067 39 21.7148 39Z" fill="#E50914"></path></svg>