<svg xmlns="http://www.w3.org/2000/svg" width="54" height="54" viewBox="0 0 54 54" fill="none"><path d="M40.2417 13.8399C40.3991 13.8401 40.5533 13.7984 40.6862 13.7195C40.8191 13.6407 40.9252 13.528 40.9921 13.3947C41.059 13.2615 41.0839 13.1131 41.0638 12.9671C41.0438 12.821 40.9796 12.6834 40.8789 12.5702L32.6033 3.28022C32.5256 3.19255 32.4283 3.12198 32.3181 3.07355C32.208 3.02511 32.0878 3 31.9661 3C31.8443 3 31.7241 3.02511 31.614 3.07355C31.5038 3.12198 31.4065 3.19255 31.3288 3.28022L23.0532 12.5702C22.9525 12.6834 22.8883 12.821 22.8683 12.9671C22.8482 13.1131 22.8731 13.2615 22.94 13.3947C23.0069 13.528 23.113 13.6407 23.2459 13.7195C23.3788 13.7984 23.533 13.8401 23.6904 13.8399H26.1731V21.148L22.6725 17.2153C22.5949 17.1276 22.4975 17.057 22.3874 17.0086C22.2772 16.9602 22.157 16.935 22.0353 16.935C21.9136 16.935 21.7934 16.9602 21.6832 17.0086C21.5731 17.057 21.4757 17.1276 21.3981 17.2153L13.1224 26.5053C13.0217 26.6184 12.9576 26.7561 12.9375 26.9021C12.9174 27.0481 12.9423 27.1965 13.0092 27.3298C13.0761 27.4631 13.1822 27.5757 13.3152 27.6546C13.4481 27.7334 13.6023 27.7752 13.7597 27.7749H16.2424V35.8573L12.7418 31.9245C12.6641 31.8368 12.5667 31.7662 12.4566 31.7178C12.3465 31.6694 12.2262 31.6443 12.1045 31.6443C11.9828 31.6443 11.8626 31.6694 11.7525 31.7178C11.6423 31.7662 11.545 31.8368 11.4673 31.9245L3.19169 41.2145C3.09096 41.3276 3.0268 41.4653 3.00675 41.6113C2.98669 41.7574 3.01157 41.9057 3.07846 42.039C3.14535 42.1723 3.25148 42.2849 3.3844 42.3638C3.51732 42.4426 3.67152 42.4844 3.82891 42.4841H6.3116V50.2258C6.3116 50.4312 6.39879 50.6281 6.55399 50.7733C6.70918 50.9184 6.91968 51 7.13916 51H36.9314C37.1509 51 37.3614 50.9184 37.5166 50.7733C37.6718 50.6281 37.759 50.4312 37.759 50.2258V47.3614C38.8206 47.7196 39.9406 47.903 41.0692 47.9033C43.703 47.9033 46.229 46.9246 48.0914 45.1823C49.9537 43.4401 51 41.0772 51 38.6133C51 36.1494 49.9537 33.7865 48.0914 32.0442C46.229 30.302 43.703 29.3233 41.0692 29.3233C39.9406 29.3236 38.8206 29.507 37.759 29.8652V13.8399H40.2417ZM16.2424 41.71V49.4517H7.96672V41.71C7.96672 41.5046 7.87954 41.3077 7.72434 41.1625C7.56914 41.0174 7.35864 40.9358 7.13916 40.9358H5.59162L12.1045 33.6276L18.6175 40.9358H17.0699C16.8504 40.9358 16.6399 41.0174 16.4847 41.1625C16.3295 41.3077 16.2424 41.5046 16.2424 41.71ZM26.1731 27.0008V49.4517H17.8975V42.4841H20.3802C20.5376 42.4844 20.6918 42.4426 20.8247 42.3638C20.9576 42.2849 21.0637 42.1723 21.1306 42.039C21.1975 41.9057 21.2224 41.7574 21.2023 41.6113C21.1823 41.4653 21.1181 41.3276 21.0174 41.2145L17.8975 37.7153V27.0008C17.8975 26.7954 17.8103 26.5985 17.6551 26.4533C17.4999 26.3082 17.2894 26.2266 17.0699 26.2266H15.5224L22.0353 18.9184L28.5482 26.2266H27.0007C26.7812 26.2266 26.5707 26.3082 26.4155 26.4533C26.2603 26.5985 26.1731 26.7954 26.1731 27.0008ZM41.0692 30.8716C42.706 30.8716 44.306 31.3256 45.6669 32.1763C47.0279 33.027 48.0886 34.2361 48.7149 35.6507C49.3413 37.0653 49.5052 38.6219 49.1859 40.1236C48.8665 41.6254 48.0784 43.0048 46.921 44.0875C45.7636 45.1702 44.2891 45.9075 42.6837 46.2062C41.0784 46.5049 39.4145 46.3516 37.9023 45.7657C36.3901 45.1797 35.0976 44.1875 34.1883 42.9143C33.279 41.6412 32.7936 40.1445 32.7936 38.6133C32.7936 36.5601 33.6655 34.5909 35.2175 33.1391C36.7695 31.6872 38.8744 30.8716 41.0692 30.8716ZM36.9314 12.2915C36.7119 12.2915 36.5015 12.3731 36.3463 12.5183C36.1911 12.6635 36.1039 12.8604 36.1039 13.0657V30.5774C34.599 31.3941 33.3498 32.5662 32.4815 33.9765C31.6131 35.3868 31.1561 36.9858 31.1561 38.6133C31.1561 40.2408 31.6131 41.8398 32.4815 43.2501C33.3498 44.6604 34.599 45.8325 36.1039 46.6492V49.4517H27.8282V27.7749H30.3109C30.4683 27.7752 30.6225 27.7334 30.7554 27.6546C30.8884 27.5757 30.9945 27.4631 31.0614 27.3298C31.1283 27.1965 31.1531 27.0481 31.1331 26.9021C31.113 26.7561 31.0489 26.6184 30.9481 26.5053L27.8282 23.006V13.0657C27.8282 12.8604 27.741 12.6635 27.5859 12.5183C27.4307 12.3731 27.2202 12.2915 27.0007 12.2915H25.4531L31.9661 4.98339L38.479 12.2915H36.9314Z" fill="#E50914"></path><path d="M39.0248 42.2825C39.2419 42.2816 39.45 42.201 39.6041 42.058L46.0343 36.0349L44.8757 34.9434L39.0248 40.4167L37.2621 38.7755L36.1035 39.8671L38.4455 42.058C38.5997 42.201 38.8077 42.2816 39.0248 42.2825Z" fill="#E50914"></path></svg>