<svg xmlns="http://www.w3.org/2000/svg" width="54" height="54" viewBox="0 0 54 54" fill="none"><path d="M23.6038 44.7175H9.8799C9.34903 44.7175 8.91992 44.2317 8.91992 43.6307C8.91992 43.0297 9.34903 42.5439 9.8799 42.5439H23.6038C24.1346 42.5439 24.5637 43.0297 24.5637 43.6307C24.5637 44.2317 24.1337 44.7175 23.6038 44.7175Z" fill="#E50914"></path><path d="M31.2624 25.5817H14.7354C14.2045 25.5817 13.7754 25.0959 13.7754 24.495C13.7754 23.894 14.2045 23.4082 14.7354 23.4082H31.2633C31.7942 23.4082 32.2233 23.894 32.2233 24.495C32.2233 25.0959 31.7932 25.5817 31.2624 25.5817Z" fill="#E50914"></path><path d="M36.4404 50.9998C33.8475 50.9998 31.3679 49.9532 29.4585 48.0558C25.8289 44.4456 24.8295 38.3217 27.0826 33.4933C28.8893 29.6233 32.5775 27.126 36.4779 27.126C37.3313 27.126 38.1799 27.2423 39.0026 27.4781C43.6269 28.7909 46.9839 33.6671 46.9839 39.0705C46.9839 42.9404 45.3183 46.5865 42.5258 48.8285C40.7575 50.2488 38.6522 50.9998 36.4404 50.9998ZM36.4779 29.2984C33.2792 29.2984 30.2582 31.3426 28.7789 34.5094C26.9357 38.4576 27.7546 43.4686 30.7247 46.4235C32.2837 47.9732 34.3131 48.8263 36.4395 48.8263C38.2519 48.8263 39.9722 48.2144 41.416 47.056C43.6998 45.2204 45.0639 42.2351 45.0639 39.0705C45.0639 34.6496 42.3184 30.659 38.5351 29.5842C37.8651 29.394 37.1729 29.2984 36.4779 29.2984Z" fill="#E50914"></path><path d="M9.87993 44.7176C8.29213 44.7176 7 43.2549 7 41.4574C7 40.8564 7.42911 40.3706 7.95998 40.3706C8.49085 40.3706 8.91996 40.8564 8.91996 41.4574C8.91996 42.0583 9.35003 42.5441 9.87993 42.5441C10.4108 42.5441 10.8399 43.0299 10.8399 43.6309C10.8399 44.2318 10.4098 44.7176 9.87993 44.7176Z" fill="#E50914"></path><path d="M7.95998 42.5435C7.42911 42.5435 7 42.0577 7 41.4567V32.1497C7 31.5488 7.42911 31.063 7.95998 31.063C8.49085 31.063 8.91996 31.5488 8.91996 32.1497V41.4567C8.91996 42.0566 8.48989 42.5435 7.95998 42.5435Z" fill="#E50914"></path><path d="M7.95998 33.2357C7.42911 33.2357 7 32.7499 7 32.149C7 27.3281 10.4636 23.4082 14.7221 23.4082C15.2529 23.4082 15.682 23.894 15.682 24.495C15.682 25.0959 15.2529 25.5817 14.7221 25.5817C11.5225 25.5817 8.91996 28.5279 8.91996 32.149C8.91996 32.7499 8.48989 33.2357 7.95998 33.2357Z" fill="#E50914"></path><path d="M22.9351 25.5588C21.236 25.5588 19.5675 25.0687 18.1093 24.1428C13.9123 21.477 11.9693 15.602 13.5917 10.4801C15.0067 6.00596 18.8005 3 23.0311 3C23.5946 3 24.161 3.05542 24.714 3.16301C29.415 4.09436 32.9611 8.87717 32.9611 14.287C32.9611 16.8485 32.1826 19.3578 30.7695 21.3509C28.9004 23.9863 25.9715 25.5588 22.9351 25.5588ZM23.0311 5.17351C19.6616 5.17351 16.5244 7.65674 15.3993 11.2126C14.0899 15.3499 15.6595 20.0936 19.0491 22.2475C20.2222 22.993 21.5652 23.3853 22.9351 23.3853C25.3956 23.3853 27.7648 22.116 29.2719 19.9914C30.4134 18.383 31.0421 16.3573 31.0421 14.2881C31.0421 9.91936 28.1805 6.05704 24.3837 5.305C23.9383 5.21806 23.4842 5.17351 23.0311 5.17351Z" fill="#E50914"></path><path d="M36.4854 46.6777C35.9545 46.6777 35.5254 46.192 35.5254 45.591V44.5042C35.5254 43.9033 35.9545 43.4175 36.4854 43.4175C37.0162 43.4175 37.4453 43.9033 37.4453 44.5042V45.591C37.4453 46.192 37.0153 46.6777 36.4854 46.6777Z" fill="#E50914"></path><path d="M36.568 42.3312C36.5037 42.3312 36.4374 42.3225 36.3722 42.3083C35.8528 42.1855 35.5187 41.6096 35.6272 41.0238C35.9047 39.5143 36.7302 38.6427 37.4589 37.8722C37.839 37.469 38.2009 37.0865 38.4649 36.6344L38.6924 36.0291C38.7318 35.853 38.7471 35.6596 38.7375 35.4585C38.68 34.3033 37.6643 33.7708 36.8109 33.6654C35.4755 33.498 34.4503 34.1794 34.0586 35.4781C33.8868 36.0465 33.3415 36.3442 32.8394 36.1551C32.3383 35.9617 32.0695 35.3444 32.2414 34.775C32.9249 32.5123 34.8055 31.2321 37.0201 31.5038C38.7452 31.7179 40.5375 32.9873 40.6537 35.3368C40.6757 35.8085 40.6335 36.2627 40.5241 36.6866C40.5125 36.7289 40.5001 36.7713 40.4847 36.8115L40.1986 37.5712C40.1785 37.6244 40.1554 37.6755 40.1286 37.7244C39.7292 38.4417 39.2195 38.9829 38.7692 39.4589C38.1491 40.1153 37.6605 40.6304 37.5078 41.465C37.4128 41.9791 37.0134 42.3312 36.568 42.3312Z" fill="#E50914"></path></svg>