<svg xmlns="http://www.w3.org/2000/svg" width="54" height="54" viewBox="0 0 54 54" fill="none"><path d="M26.973 51C22.7865 51 18.648 49.8865 15.0038 47.7831C9.45699 44.5794 5.48763 39.4044 3.82864 33.2094C2.16964 27.0168 3.01893 20.5494 6.22177 15.0012C10.4946 7.59914 18.4669 3 27.027 3C31.2135 3 35.352 4.11349 38.9962 6.21688C44.543 9.42056 48.5124 14.5956 50.1714 20.7906C51.8304 26.9844 50.9811 33.4518 47.7782 39C43.5054 46.4009 35.5319 51 26.973 51ZM27.0258 5.39976C19.3198 5.39976 12.144 9.53815 8.29941 16.2011C5.41686 21.1938 4.65274 27.0144 6.14499 32.589C7.63845 38.1637 11.2107 42.8216 16.2033 45.7049C19.4817 47.5983 23.2064 48.6002 26.973 48.6002C34.679 48.6002 41.8548 44.4619 45.6994 37.7989C48.5819 32.8062 49.3461 26.9856 47.8538 21.411C46.3604 15.8351 42.7881 11.1772 37.7955 8.29507C34.5171 6.40166 30.7924 5.39976 27.0258 5.39976Z" fill="#E50914"></path><path d="M26.9988 36.5987C26.3355 36.5987 25.7993 36.0623 25.7993 35.3988C25.7993 31.1812 28.2968 29.397 30.5004 27.824C32.566 26.3481 34.1962 25.1818 34.1962 22.2001C34.1962 18.2297 30.9682 15.0008 26.9988 15.0008C23.0295 15.0008 19.8015 18.2297 19.8015 22.2001C19.8015 22.8636 19.2653 23.4 18.6019 23.4C17.9385 23.4 17.4023 22.8636 17.4023 22.2001C17.4023 16.9074 21.7076 12.6011 26.9988 12.6011C32.2901 12.6011 36.5954 16.9074 36.5954 22.2001C36.5954 26.4177 34.0979 28.2019 31.8943 29.775C29.8286 31.2508 28.1984 32.4171 28.1984 35.3988C28.1984 36.0623 27.6622 36.5987 26.9988 36.5987Z" fill="#E50914"></path><path d="M27.0356 42.598C26.3723 42.598 25.8301 42.0617 25.8301 41.3981C25.8301 40.7346 26.3603 40.1982 27.0224 40.1982H27.0356C27.6978 40.1982 28.2352 40.7346 28.2352 41.3981C28.2352 42.0617 27.6978 42.598 27.0356 42.598Z" fill="#E50914"></path></svg>