<svg xmlns="http://www.w3.org/2000/svg" width="54" height="54" viewBox="0 0 54 54" fill="none"><path d="M3.6 40.967C16.5 54.3443 37.5 54.3443 50.4 40.967L50.775 40.5804C51.075 40.2711 51.075 39.8071 50.775 39.4978L50.4 39.1112C37.5 25.8112 16.5 25.8112 3.6 39.1112L3.225 39.4978C2.925 39.8071 2.925 40.2711 3.225 40.5804L3.6 40.967ZM36.075 40.0391C36.075 45.0653 32.175 49.4728 26.775 49.3955C21.825 49.3182 17.85 45.1426 17.85 40.0391C17.85 34.9356 21.825 30.7601 26.775 30.6827C32.175 30.6827 36.075 35.013 36.075 40.0391ZM49.2 40.0391C44.775 44.524 39.3 47.5397 33.375 48.7769C35.925 46.7664 37.575 43.5961 37.575 40.0391C37.575 36.4822 35.925 33.3118 33.375 31.3013C39.3 32.6159 44.775 35.5542 49.2 40.0391ZM20.625 31.3013C18.075 33.3118 16.425 36.4822 16.425 40.0391C16.425 43.5961 18.075 46.7664 20.625 48.7769C14.7 47.5397 9.225 44.524 4.8 40.0391C9.225 35.5542 14.7 32.6159 20.625 31.3013Z" fill="#E50914"></path><path d="M27.0004 43.3639C28.8004 43.3639 30.2254 41.8947 30.2254 40.0389C30.2254 38.1831 28.8004 36.7139 27.0004 36.7139C25.2004 36.7139 23.7754 38.1831 23.7754 40.0389C23.7754 41.8947 25.2004 43.3639 27.0004 43.3639ZM27.0004 38.2604C27.9754 38.2604 28.7254 39.0336 28.7254 40.0389C28.7254 41.0441 27.9754 41.8173 27.0004 41.8173C26.0254 41.8173 25.2754 41.0441 25.2754 40.0389C25.2754 39.111 26.1004 38.2604 27.0004 38.2604Z" fill="#E50914"></path><path d="M16.9512 18.0784V25.579C16.9512 26.043 17.2512 26.3523 17.7012 26.3523C18.1512 26.3523 18.4512 26.043 18.4512 25.579V18.0784C18.4512 17.6145 18.1512 17.3052 17.7012 17.3052C17.3262 17.3052 16.9512 17.6918 16.9512 18.0784Z" fill="#E50914"></path><path d="M23.1758 12.8978V25.5791C23.1758 26.0431 23.4758 26.3524 23.9258 26.3524C24.3758 26.3524 24.6758 26.0431 24.6758 25.5791V12.8978C24.6758 12.4338 24.3758 12.1245 23.9258 12.1245C23.4758 12.1245 23.1758 12.5111 23.1758 12.8978Z" fill="#E50914"></path><path d="M29.3262 18.0784V25.579C29.3262 26.043 29.6262 26.3523 30.0762 26.3523C30.5262 26.3523 30.8262 26.043 30.8262 25.579V18.0784C30.8262 17.6145 30.5262 17.3052 30.0762 17.3052C29.7012 17.3052 29.3262 17.6918 29.3262 18.0784Z" fill="#E50914"></path><path d="M35.5508 12.8978V25.5791C35.5508 26.0431 35.8508 26.3524 36.3008 26.3524C36.7508 26.3524 37.0508 26.0431 37.0508 25.5791V12.8978C37.0508 12.4338 36.7508 12.1245 36.3008 12.1245C35.8508 12.1245 35.5508 12.5111 35.5508 12.8978Z" fill="#E50914"></path><path d="M13.95 17.5372C15.375 17.5372 16.575 16.3 16.575 14.8308C16.575 14.4442 16.5 14.0575 16.35 13.7482L23.1 6.78895L29.625 11.5831C29.85 11.7378 30.225 11.7378 30.45 11.5831L36.15 7.48488C36.675 8.02615 37.35 8.41278 38.175 8.41278C39.6 8.41278 40.8 7.17557 40.8 5.70639C40.8 4.23721 39.6 3 38.175 3C36.75 3 35.55 4.23721 35.55 5.70639V6.01569L30.075 9.95929L23.4 5.16511C23.1 4.93314 22.725 5.01046 22.425 5.24244L15.3 12.5884C14.925 12.3564 14.4 12.1244 13.875 12.1244C12.45 12.1244 11.25 13.3616 11.25 14.8308C11.25 16.3 12.525 17.5372 13.95 17.5372ZM38.175 4.46918C38.775 4.46918 39.3 5.01046 39.3 5.62907C39.3 6.24767 38.775 6.78895 38.175 6.78895C37.575 6.78895 37.05 6.24767 37.05 5.62907C37.05 5.01046 37.575 4.46918 38.175 4.46918ZM13.95 13.6709C14.7 13.6709 15.075 14.5215 15.075 14.8308C15.075 15.4494 14.55 15.9907 13.95 15.9907C13.35 15.9907 12.825 15.4494 12.825 14.8308C12.825 14.2122 13.35 13.6709 13.95 13.6709Z" fill="#E50914"></path></svg>